# xmcd
#
# Track frame offsets: 
#        150
#        15561
#        32547
#        48840
#        63545
#        80611
#        96688
#        114442
#        130030
#        147497
#        165743
#        182323
#        196776
#
# Disc length: 2877 seconds
#
# Revision: 1
# Processed by: cddbd v1.5.2PL0 Copyright (c) Steve Scherf et al.
# Submitted via: ExactAudioCopy v0.95b4
#
DISCID=a80b3b0d
DTITLE=Ирина Билык - Любовь_Яд
DYEAR=2004
DGENRE=Pop
TTITLE0=О любви
TTITLE1=Помнить
TTITLE2=Не такая, как все
TTITLE3=Шутка
TTITLE4=Снег
TTITLE5=Любовь.Яд
TTITLE6=Если ты хочешь
TTITLE7=Киев-Ленинград
TTITLE8=Лучики
TTITLE9=15 шагов
TTITLE10=Любовь-это...
TTITLE11=Ты-на север, я-на юг (дуэт с Веркой Сердючкой)
TTITLE12=Вверх по реке (Soundtrack)
EXTD=
EXTT0=
EXTT1=
EXTT2=
EXTT3=
EXTT4=
EXTT5=
EXTT6=
EXTT7=
EXTT8=
EXTT9=
EXTT10=
EXTT11=
EXTT12=
PLAYORDER=
